<?xml version="1.0" encoding="UTF-8"?>
<svg id="Layer_1" xmlns="http://www.w3.org/2000/svg" version="1.1" viewBox="0 0 576 576">
  <!-- Generator: Adobe Illustrator 30.2.1, SVG Export Plug-In . SVG Version: 2.1.1 Build 1)  -->
  <defs>
    <style>
      .st0 {
        fill: #ed1c24;
      }

      .st1 {
        fill: #fff;
      }
    </style>
  </defs>
  <path class="st1" d="M363.57,348.25c10.3-21.43,14.27-38.78-8.94-52.9l-151.42-23.07c-29.53.74-41.13,37.14-16.89,53.99,14.36,9.98,71.37,13.26,92.63,17.31,3.05.58,10.91.55,10.42,4.64-35.36,3.53-70.24-8.52-104.4-9.61l5.48,9.63h-42.6l-4.12,4.12v68.71l4.12,4.12h155.27c8.11,29.41-23.81,73.67-22.15,97.53,1.59,22.89,32.18,35.29,49.76,19.41,19.74-17.83,32.4-89.99,32.85-116.94h64.58l4.12-4.12v-72.84h-68.7Z"/>
  <path class="st1" d="M204.83,254.29c15.14-1.78,36.17-19.73,54.19-22.99,16.65-3.01,41.91,5.6,46.29-14.23,3.91-17.7-7.8-23.42-23.11-25.17-27.58-3.16-54.38,9.04-77.99,21.66-9.69-10.1,51.14-26.63,56.59-27.18,28.98-2.95,46.53,7.94,69.74,23.06l-19.17-1.39c1.64,13.73-4.62,25.56-19.24,27.53,17.81,14.67,39.36,27.32,60.29,9.43,28.91-24.71,19.12-78.33-15.67-93.95-20.75-9.31-113.46-9.37-135.24-2.01-59.38,20.07-41.2,110.45,3.31,105.23Z"/>
  <path class="st1" d="M285.86,131.72c59.41-22.61,34.65-113.27-27.41-104.4-77.78,11.12-48.23,133.19,27.41,104.4ZM267.21,49.16c17.22,0,31.18,13.96,31.18,31.18s-13.96,31.18-31.18,31.18-31.18-13.96-31.18-31.18,13.96-31.18,31.18-31.18Z"/>
  <path class="st1" d="M201.44,260.33c.53,4.18,3.9,4.39,7.14,5.2,37.39,9.36,83.65,10.28,122.03,16.77l-.28-21.73c-19.28-.34-43.87-24.86-61.47-25.08-21.98-.27-44.89,23.73-67.41,24.84Z"/>
  <circle class="st0" cx="267.21" cy="80.34" r="31.18"/>
</svg>